<mxfile host="65bd71144e">
    <diagram id="0zQ67cztREEyy8X88kDV" name="Страница 1">
        <mxGraphModel dx="734" dy="3940" grid="1" gridSize="10" guides="1" tooltips="1" connect="1" arrows="1" fold="1" page="1" pageScale="1" pageWidth="827" pageHeight="1169" math="0" shadow="0">
            <root>
                <mxCell id="0"/>
                <mxCell id="1" parent="0"/>
                <mxCell id="3" style="edgeStyle=orthogonalEdgeStyle;rounded=0;orthogonalLoop=1;jettySize=auto;html=1;exitX=0.5;exitY=1;exitDx=0;exitDy=0;entryX=0.5;entryY=0;entryDx=0;entryDy=0;fontSize=10;" edge="1" parent="1" source="4" target="7">
                    <mxGeometry relative="1" as="geometry"/>
                </mxCell>
                <mxCell id="4" value="Start" style="rounded=1;whiteSpace=wrap;html=1;" vertex="1" parent="1">
                    <mxGeometry x="375" y="-2520" width="100" height="48" as="geometry"/>
                </mxCell>
                <mxCell id="5" value="Первая&amp;nbsp; задача" style="text;html=1;align=center;verticalAlign=middle;resizable=0;points=[];autosize=1;strokeColor=none;fillColor=none;" vertex="1" parent="1">
                    <mxGeometry x="370" y="-2610" width="110" height="30" as="geometry"/>
                </mxCell>
                <mxCell id="6" value="" style="edgeStyle=orthogonalEdgeStyle;rounded=0;orthogonalLoop=1;jettySize=auto;html=1;fontSize=10;" edge="1" parent="1" source="7" target="9">
                    <mxGeometry relative="1" as="geometry"/>
                </mxCell>
                <mxCell id="7" value="WriteLine (&quot;Первая задача. Дан массив из него нужно получить другой массив [“Hello”, “2”, “world”, “:-)”] → [“2”, “:-)”]&quot;);" style="shape=parallelogram;perimeter=parallelogramPerimeter;whiteSpace=wrap;html=1;fixedSize=1;fontSize=10;" vertex="1" parent="1">
                    <mxGeometry x="130" y="-2420" width="590" height="60" as="geometry"/>
                </mxCell>
                <mxCell id="8" value="" style="edgeStyle=orthogonalEdgeStyle;rounded=0;orthogonalLoop=1;jettySize=auto;html=1;fontSize=10;" edge="1" parent="1" source="9">
                    <mxGeometry relative="1" as="geometry">
                        <mxPoint x="425" y="-2220" as="targetPoint"/>
                    </mxGeometry>
                </mxCell>
                <mxCell id="9" value="string [] array= {&quot;Hello&quot;, &quot;2&quot;, &quot;world&quot;, &quot;:-)&quot;};" style="shape=parallelogram;perimeter=parallelogramPerimeter;whiteSpace=wrap;html=1;fixedSize=1;fontSize=10;" vertex="1" parent="1">
                    <mxGeometry x="240" y="-2320" width="370" height="60" as="geometry"/>
                </mxCell>
                <mxCell id="10" value="WriteLine($&quot;[ “{array[1]}”, “{array[3]}” ]&quot;);" style="shape=document;whiteSpace=wrap;html=1;boundedLbl=1;fontSize=10;" vertex="1" parent="1">
                    <mxGeometry x="365" y="-2220" width="120" height="80" as="geometry"/>
                </mxCell>
            </root>
        </mxGraphModel>
    </diagram>
    <diagram id="HFymIvctiSXp3uhBcRIS" name="Страница 2">
        <mxGraphModel dx="734" dy="3940" grid="1" gridSize="10" guides="1" tooltips="1" connect="1" arrows="1" fold="1" page="1" pageScale="1" pageWidth="827" pageHeight="1169" math="0" shadow="0">
            <root>
                <mxCell id="laJ98N_y_3fe_AgUZgbv-0"/>
                <mxCell id="laJ98N_y_3fe_AgUZgbv-1" parent="laJ98N_y_3fe_AgUZgbv-0"/>
                <mxCell id="laJ98N_y_3fe_AgUZgbv-2" style="edgeStyle=orthogonalEdgeStyle;rounded=0;orthogonalLoop=1;jettySize=auto;html=1;exitX=0.5;exitY=1;exitDx=0;exitDy=0;entryX=0.5;entryY=0;entryDx=0;entryDy=0;fontSize=10;" edge="1" parent="laJ98N_y_3fe_AgUZgbv-1" source="laJ98N_y_3fe_AgUZgbv-3" target="laJ98N_y_3fe_AgUZgbv-6">
                    <mxGeometry relative="1" as="geometry"/>
                </mxCell>
                <mxCell id="laJ98N_y_3fe_AgUZgbv-3" value="Start" style="rounded=1;whiteSpace=wrap;html=1;" vertex="1" parent="laJ98N_y_3fe_AgUZgbv-1">
                    <mxGeometry x="375" y="-2520" width="100" height="48" as="geometry"/>
                </mxCell>
                <mxCell id="laJ98N_y_3fe_AgUZgbv-4" value="Вторая задача" style="text;html=1;align=center;verticalAlign=middle;resizable=0;points=[];autosize=1;strokeColor=none;fillColor=none;" vertex="1" parent="laJ98N_y_3fe_AgUZgbv-1">
                    <mxGeometry x="375" y="-2560" width="100" height="30" as="geometry"/>
                </mxCell>
                <mxCell id="laJ98N_y_3fe_AgUZgbv-5" value="" style="edgeStyle=orthogonalEdgeStyle;rounded=0;orthogonalLoop=1;jettySize=auto;html=1;fontSize=10;" edge="1" parent="laJ98N_y_3fe_AgUZgbv-1" source="laJ98N_y_3fe_AgUZgbv-6" target="laJ98N_y_3fe_AgUZgbv-8">
                    <mxGeometry relative="1" as="geometry"/>
                </mxCell>
                <mxCell id="laJ98N_y_3fe_AgUZgbv-6" value="WriteLine (&quot; Дан массив из него нужно получить другой массив [“1234”, “1567”, “-2”, “computer science”] → [“-2”] &quot;);" style="shape=parallelogram;perimeter=parallelogramPerimeter;whiteSpace=wrap;html=1;fixedSize=1;fontSize=10;" vertex="1" parent="laJ98N_y_3fe_AgUZgbv-1">
                    <mxGeometry x="130" y="-2420" width="590" height="60" as="geometry"/>
                </mxCell>
                <mxCell id="laJ98N_y_3fe_AgUZgbv-7" value="" style="edgeStyle=orthogonalEdgeStyle;rounded=0;orthogonalLoop=1;jettySize=auto;html=1;fontSize=10;" edge="1" parent="laJ98N_y_3fe_AgUZgbv-1" source="laJ98N_y_3fe_AgUZgbv-8">
                    <mxGeometry relative="1" as="geometry">
                        <mxPoint x="425" y="-2220" as="targetPoint"/>
                    </mxGeometry>
                </mxCell>
                <mxCell id="laJ98N_y_3fe_AgUZgbv-8" value="string [] array1= {&quot;1234&quot;, &quot;1567&quot;, &quot;-2&quot;, &quot;computer science&quot;};" style="shape=parallelogram;perimeter=parallelogramPerimeter;whiteSpace=wrap;html=1;fixedSize=1;fontSize=10;" vertex="1" parent="laJ98N_y_3fe_AgUZgbv-1">
                    <mxGeometry x="240" y="-2320" width="370" height="60" as="geometry"/>
                </mxCell>
                <mxCell id="laJ98N_y_3fe_AgUZgbv-9" value="WriteLine($&quot;[ “{array1[2]}” ]&quot;);" style="shape=document;whiteSpace=wrap;html=1;boundedLbl=1;fontSize=10;" vertex="1" parent="laJ98N_y_3fe_AgUZgbv-1">
                    <mxGeometry x="350" y="-2220" width="150" height="80" as="geometry"/>
                </mxCell>
            </root>
        </mxGraphModel>
    </diagram>
    <diagram id="L9U7hKzYEPapxSgD_TWZ" name="Страница 3">
        <mxGraphModel dx="734" dy="3940" grid="1" gridSize="10" guides="1" tooltips="1" connect="1" arrows="1" fold="1" page="1" pageScale="1" pageWidth="827" pageHeight="1169" math="0" shadow="0">
            <root>
                <mxCell id="sFJ1JvAM6jTY2493yfm0-0"/>
                <mxCell id="sFJ1JvAM6jTY2493yfm0-1" parent="sFJ1JvAM6jTY2493yfm0-0"/>
                <mxCell id="sFJ1JvAM6jTY2493yfm0-2" style="edgeStyle=orthogonalEdgeStyle;rounded=0;orthogonalLoop=1;jettySize=auto;html=1;exitX=0.5;exitY=1;exitDx=0;exitDy=0;entryX=0.5;entryY=0;entryDx=0;entryDy=0;fontSize=10;" edge="1" parent="sFJ1JvAM6jTY2493yfm0-1" source="sFJ1JvAM6jTY2493yfm0-3" target="sFJ1JvAM6jTY2493yfm0-6">
                    <mxGeometry relative="1" as="geometry"/>
                </mxCell>
                <mxCell id="sFJ1JvAM6jTY2493yfm0-3" value="Start" style="rounded=1;whiteSpace=wrap;html=1;" vertex="1" parent="sFJ1JvAM6jTY2493yfm0-1">
                    <mxGeometry x="375" y="-2520" width="100" height="48" as="geometry"/>
                </mxCell>
                <mxCell id="sFJ1JvAM6jTY2493yfm0-4" value="Третья&amp;nbsp; &amp;nbsp;задача" style="text;html=1;align=center;verticalAlign=middle;resizable=0;points=[];autosize=1;strokeColor=none;fillColor=none;" vertex="1" parent="sFJ1JvAM6jTY2493yfm0-1">
                    <mxGeometry x="370" y="-2580" width="110" height="30" as="geometry"/>
                </mxCell>
                <mxCell id="sFJ1JvAM6jTY2493yfm0-5" value="" style="edgeStyle=orthogonalEdgeStyle;rounded=0;orthogonalLoop=1;jettySize=auto;html=1;fontSize=10;" edge="1" parent="sFJ1JvAM6jTY2493yfm0-1" source="sFJ1JvAM6jTY2493yfm0-6" target="sFJ1JvAM6jTY2493yfm0-8">
                    <mxGeometry relative="1" as="geometry"/>
                </mxCell>
                <mxCell id="sFJ1JvAM6jTY2493yfm0-6" value="WriteLine (&quot;Третья задача. Дан массив из него нужно получить другой массив [“Russia”, “Denmark”, “Kazan”] → []&quot;);" style="shape=parallelogram;perimeter=parallelogramPerimeter;whiteSpace=wrap;html=1;fixedSize=1;fontSize=10;" vertex="1" parent="sFJ1JvAM6jTY2493yfm0-1">
                    <mxGeometry x="130" y="-2420" width="590" height="60" as="geometry"/>
                </mxCell>
                <mxCell id="sFJ1JvAM6jTY2493yfm0-7" value="" style="edgeStyle=orthogonalEdgeStyle;rounded=0;orthogonalLoop=1;jettySize=auto;html=1;fontSize=10;" edge="1" parent="sFJ1JvAM6jTY2493yfm0-1" source="sFJ1JvAM6jTY2493yfm0-8">
                    <mxGeometry relative="1" as="geometry">
                        <mxPoint x="425" y="-2220" as="targetPoint"/>
                    </mxGeometry>
                </mxCell>
                <mxCell id="sFJ1JvAM6jTY2493yfm0-8" value="string [] array3={&quot;Russia&quot;, &quot;Denimark&quot;, &quot;Kazan&quot;}; &lt;br&gt;&lt;br&gt;string [] b={&quot;&quot;};" style="shape=parallelogram;perimeter=parallelogramPerimeter;whiteSpace=wrap;html=1;fixedSize=1;fontSize=10;" vertex="1" parent="sFJ1JvAM6jTY2493yfm0-1">
                    <mxGeometry x="240" y="-2320" width="370" height="60" as="geometry"/>
                </mxCell>
                <mxCell id="sFJ1JvAM6jTY2493yfm0-9" value="" style="edgeStyle=orthogonalEdgeStyle;rounded=0;orthogonalLoop=1;jettySize=auto;html=1;fontSize=10;" edge="1" parent="sFJ1JvAM6jTY2493yfm0-1" source="sFJ1JvAM6jTY2493yfm0-10" target="sFJ1JvAM6jTY2493yfm0-11">
                    <mxGeometry relative="1" as="geometry"/>
                </mxCell>
                <mxCell id="sFJ1JvAM6jTY2493yfm0-10" value="if (array3.Length&amp;gt;b.Length)" style="rhombus;whiteSpace=wrap;html=1;fontSize=10;" vertex="1" parent="sFJ1JvAM6jTY2493yfm0-1">
                    <mxGeometry x="345" y="-2220" width="160" height="100" as="geometry"/>
                </mxCell>
                <mxCell id="sFJ1JvAM6jTY2493yfm0-11" value="WriteLine($&quot;[{b[0]}]&quot;);" style="shape=document;whiteSpace=wrap;html=1;boundedLbl=1;fontSize=10;" vertex="1" parent="sFJ1JvAM6jTY2493yfm0-1">
                    <mxGeometry x="365" y="-2070" width="120" height="80" as="geometry"/>
                </mxCell>
            </root>
        </mxGraphModel>
    </diagram>
</mxfile>